<?xml version="1.0" encoding="UTF-8" standalone="no"?>
<svg width="37px" height="36px" viewBox="0 0 37 36" version="1.1" xmlns="http://www.w3.org/2000/svg" xmlns:xlink="http://www.w3.org/1999/xlink">
    <!-- Generator: Sketch 46 (44423) - http://www.bohemiancoding.com/sketch -->
    <title>Page 1</title>
    <desc>Created with Sketch.</desc>
    <defs></defs>
    <g id="Page-1" stroke="none" stroke-width="1" fill="none" fill-rule="evenodd">
        <g id="02.-Lịch-làm-việc-của-quận" transform="translate(-121.000000, -263.000000)" fill="#52555C">
            <g id="Group-8" transform="translate(121.000000, 263.000000)">
                <path d="M18.0611677,0 C13.0943225,0 8.84246357,1.7624832 5.30546562,5.2874976 C1.76847152,8.8125168 0,13.049976 0,18 C0,22.950024 1.76847152,27.1874832 5.30546562,30.7125024 C8.84246357,34.2375178 13.0943225,36 18.0611677,36 C23.028013,36 27.2798719,34.2375178 30.8168699,30.7125024 C34.353863,27.1874832 36.1223355,22.950024 36.1223355,18 C36.1223355,13.049976 34.353863,8.8125168 30.8168699,5.2874976 C27.2798719,1.7624832 23.028013,0 18.0611677,0 L18.0611677,0 Z M18.0611677,33.6 C13.746533,33.6 10.0590831,32.075015 6.9987025,29.025 C3.93832288,25.974984 2.4081557,22.3000224 2.4081557,18 C2.4081557,13.6999776 3.93832288,10.025016 6.9987025,6.975 C10.0590831,3.924984 13.746533,2.4 18.0611677,2.4 C22.3758025,2.4 26.0632524,3.924984 29.123633,6.975 C32.1840136,10.025016 33.7141798,13.6999776 33.7141798,18 C33.7141798,22.3000224 32.1840136,25.974984 29.123633,29.025 C26.0632524,32.075015 22.3758025,33.6 18.0611677,33.6 L18.0611677,33.6 Z M26.1886932,14.775 C25.988012,14.5249968 25.737164,14.4 25.4361446,14.4 L10.6861909,14.4 C10.3851715,14.4 10.1343235,14.55 9.93364226,14.85 C9.43194155,15.4500048 9.43194155,16.0749984 9.93364226,16.725 L17.3086191,26.025 C17.5093003,26.2750032 17.7601483,26.4 18.0611677,26.4 C18.3621872,26.4 18.6130352,26.2750032 18.8137164,26.025 L18.8137164,25.95 L26.1886932,16.725 C26.6903939,16.0749984 26.6903939,15.4500048 26.1886932,14.85 L26.1886932,14.775 Z" id="Page-1"></path>
            </g>
        </g>
    </g>
</svg>