<?xml version="1.0" encoding="UTF-8" standalone="no"?>
<svg width="26px" height="21px" viewBox="0 0 26 21" version="1.1" xmlns="http://www.w3.org/2000/svg" xmlns:xlink="http://www.w3.org/1999/xlink">
    <!-- Generator: Sketch 46 (44423) - http://www.bohemiancoding.com/sketch -->
    <title>Page 1</title>
    <desc>Created with Sketch.</desc>
    <defs></defs>
    <g id="Page-1" stroke="none" stroke-width="1" fill="none" fill-rule="evenodd">
        <g id="04.-Biểu-mẫu-điện-tử---PDF" transform="translate(-337.000000, -1025.000000)" fill="#FFFFFF">
            <g id="Group-11" transform="translate(317.000000, 1005.000000)">
                <path d="M28.0511364,20.6647727 C28.4943182,20.2215909 29.0359833,20 29.6761364,20 C30.3162895,20 30.8579545,20.2215909 31.3011364,20.6647727 C31.7443182,21.1079545 31.9659091,21.6742393 31.9659091,22.3636364 C31.9659091,23.0530335 31.7443182,23.6193182 31.3011364,24.0625 L27.6818182,27.7556818 L43.7102273,27.7556818 C44.3503804,27.7556818 44.8920455,27.9895825 45.3352273,28.457384 C45.7784091,28.9251902 46,29.4791651 46,30.1193182 C46,30.7594713 45.7784091,31.3134462 45.3352273,31.7812524 C44.8920455,32.2490538 44.3503804,32.4829545 43.7102273,32.4829545 L27.6818182,32.4829545 L31.2272727,36.1761364 C31.6704545,36.6193205 31.8920455,37.1856024 31.8920455,37.875 C31.8920455,38.5643976 31.6704545,39.1306795 31.2272727,39.5738636 C30.7840909,40.0170477 30.2547356,40.2386364 29.6392022,40.2386364 C29.0236735,40.2386364 28.4943182,40.0170477 28.0511364,39.5738636 L20.6647727,31.7443182 C20.2215887,31.3011364 20,30.7594713 20,30.1193182 C20,29.4299211 20.2215887,28.8636364 20.6647727,28.4204545 L28.0511364,20.6647727 Z" id="Page-1"></path>
            </g>
        </g>
    </g>
</svg>