<?xml version="1.0" encoding="UTF-8" standalone="no"?>
<svg width="22px" height="13px" viewBox="0 0 22 13" version="1.1" xmlns="http://www.w3.org/2000/svg" xmlns:xlink="http://www.w3.org/1999/xlink">
    <!-- Generator: Sketch 46 (44423) - http://www.bohemiancoding.com/sketch -->
    <title>Page 1</title>
    <desc>Created with Sketch.</desc>
    <defs></defs>
    <g id="Page-1" stroke="none" stroke-width="1" fill="none" fill-rule="evenodd">
        <g id="02.-Lịch-làm-việc-của-quận" transform="translate(-1764.000000, -356.000000)" fill="#FFFFFF">
            <g id="Group-7" transform="translate(1750.000000, 337.000000)">
                <g id="Group-3">
                    <path d="M35.79375,30.3072917 C35.93125,30.4427092 36,30.645832 36,30.9166667 C36,31.2326403 35.8854196,31.4921866 35.65625,31.6953125 C35.4270804,31.8984385 35.1520848,32 34.83125,32 L15.16875,32 C14.8479152,32 14.5729178,31.8984385 14.34375,31.6953125 C14.1145822,31.4921866 14,31.2326403 14,30.9166667 C14,30.6909711 14.0687493,30.5104175 14.20625,30.375 L14.34375,30.171875 L23.69375,19.609375 C24.10625,19.203125 24.5416652,19 25,19 C25.4583348,19 25.89375,19.203125 26.30625,19.609375 L35.65625,30.171875 L35.79375,30.3072917 Z" id="Page-1"></path>
                </g>
            </g>
        </g>
    </g>
</svg>