<?xml version="1.0" encoding="UTF-8" standalone="no"?>
<svg width="22px" height="13px" viewBox="0 0 22 13" version="1.1" xmlns="http://www.w3.org/2000/svg" xmlns:xlink="http://www.w3.org/1999/xlink">
    <!-- Generator: Sketch 46 (44423) - http://www.bohemiancoding.com/sketch -->
    <title>Page 1 Copy</title>
    <desc>Created with Sketch.</desc>
    <defs></defs>
    <g id="Page-1" stroke="none" stroke-width="1" fill="none" fill-rule="evenodd">
        <g id="02.-Lịch-làm-việc-của-quận" transform="translate(-1764.000000, -926.000000)" fill="#FFFFFF">
            <g id="Group-7" transform="translate(1750.000000, 337.000000)">
                <g id="Group-3">
                    <path d="M35.79375,600.307292 C35.93125,600.442709 36,600.645832 36,600.916667 C36,601.23264 35.8854196,601.492187 35.65625,601.695312 C35.4270804,601.898438 35.1520848,602 34.83125,602 L15.16875,602 C14.8479152,602 14.5729178,601.898438 14.34375,601.695312 C14.1145822,601.492187 14,601.23264 14,600.916667 C14,600.690971 14.0687493,600.510418 14.20625,600.375 L14.34375,600.171875 L23.69375,589.609375 C24.10625,589.203125 24.5416652,589 25,589 C25.4583348,589 25.89375,589.203125 26.30625,589.609375 L35.65625,600.171875 L35.79375,600.307292 Z" id="Page-1-Copy" transform="translate(25.000000, 595.500000) scale(1, -1) translate(-25.000000, -595.500000) "></path>
                </g>
            </g>
        </g>
    </g>
</svg>