<?xml version="1.0" encoding="UTF-8" standalone="no"?>
<svg width="37px" height="36px" viewBox="0 0 37 36" version="1.1" xmlns="http://www.w3.org/2000/svg" xmlns:xlink="http://www.w3.org/1999/xlink">
    <!-- Generator: Sketch 46 (44423) - http://www.bohemiancoding.com/sketch -->
    <title>Page 1 Copy</title>
    <desc>Created with Sketch.</desc>
    <defs></defs>
    <g id="Page-1" stroke="none" stroke-width="1" fill="none" fill-rule="evenodd">
        <g id="02.-Lịch-làm-việc-của-quận" transform="translate(-219.000000, -263.000000)" fill="#52555C">
            <g id="Group-8" transform="translate(121.000000, 263.000000)">
                <path d="M116.061168,0 C111.094323,0 106.842464,1.7624832 103.305466,5.2874976 C99.7684715,8.8125168 98,13.049976 98,18 C98,22.950024 99.7684715,27.1874832 103.305466,30.7125024 C106.842464,34.2375178 111.094323,36 116.061168,36 C121.028013,36 125.279872,34.2375178 128.81687,30.7125024 C132.353863,27.1874832 134.122335,22.950024 134.122335,18 C134.122335,13.049976 132.353863,8.8125168 128.81687,5.2874976 C125.279872,1.7624832 121.028013,0 116.061168,0 L116.061168,0 Z M116.061168,33.6 C111.746533,33.6 108.059083,32.075015 104.998703,29.025 C101.938323,25.974984 100.408156,22.3000224 100.408156,18 C100.408156,13.6999776 101.938323,10.025016 104.998703,6.975 C108.059083,3.924984 111.746533,2.4 116.061168,2.4 C120.375803,2.4 124.063252,3.924984 127.123633,6.975 C130.184014,10.025016 131.71418,13.6999776 131.71418,18 C131.71418,22.3000224 130.184014,25.974984 127.123633,29.025 C124.063252,32.075015 120.375803,33.6 116.061168,33.6 L116.061168,33.6 Z M124.188693,14.775 C123.988012,14.5249968 123.737164,14.4 123.436145,14.4 L108.686191,14.4 C108.385171,14.4 108.134324,14.55 107.933642,14.85 C107.431942,15.4500048 107.431942,16.0749984 107.933642,16.725 L115.308619,26.025 C115.5093,26.2750032 115.760148,26.4 116.061168,26.4 C116.362187,26.4 116.613035,26.2750032 116.813716,26.025 L116.813716,25.95 L124.188693,16.725 C124.690394,16.0749984 124.690394,15.4500048 124.188693,14.85 L124.188693,14.775 Z" id="Page-1-Copy" transform="translate(116.061168, 18.000000) scale(1, -1) translate(-116.061168, -18.000000) "></path>
            </g>
        </g>
    </g>
</svg>