<?xml version="1.0" encoding="UTF-8" standalone="no"?>
<svg width="90px" height="90px" viewBox="0 0 90 90" version="1.1" xmlns="http://www.w3.org/2000/svg" xmlns:xlink="http://www.w3.org/1999/xlink">
    <!-- Generator: Sketch 46 (44423) - http://www.bohemiancoding.com/sketch -->
    <title>calendar (3)</title>
    <desc>Created with Sketch.</desc>
    <defs></defs>
    <g id="Page-1" stroke="none" stroke-width="1" fill="none" fill-rule="evenodd">
        <g id="01.01.-Màn-hình-chính" transform="translate(-1066.000000, -326.000000)">
            <g id="calendar-(3)" transform="translate(1066.000000, 326.000000)">
                <g id="Layer_1">
                    <path d="M86.7812195,7.82067073 L3.13097561,7.82067073 C1.40195122,7.82067073 0,9.22262195 0,10.9518293 L0,26.4839634 L89.9121951,26.4839634 L89.9121951,10.9518293 C89.9121951,9.22262195 88.5104268,7.82067073 86.7812195,7.82067073 L86.7812195,7.82067073 Z" id="Shape" fill="#EF6320"></path>
                    <path d="M0,26.4839634 L0,86.7810366 C0,88.5102439 1.40195122,89.9120122 3.13097561,89.9120122 L86.7810366,89.9120122 C88.5104268,89.9120122 89.9120122,88.5102439 89.9120122,86.7810366 L89.9120122,26.4839634 L0,26.4839634 L0,26.4839634 Z" id="Shape" fill="#E1E6E9"></path>
                    <path d="M0,26.4839634 L0,83.5115854 C0,85.2407927 1.40195122,86.642561 3.13097561,86.642561 L86.7810366,86.642561 C88.5104268,86.642561 89.9120122,85.2407927 89.9120122,83.5115854 L89.9120122,26.4839634 L0,26.4839634 L0,26.4839634 Z" id="Shape" fill="#FFFFFF"></path>
                    <circle id="Oval" fill="#D15241" cx="14.355" cy="14.3522561" r="4.70158537"></circle>
                    <path d="M14.3553659,0 C12.4951829,0 10.9873171,1.50786585 10.9873171,3.36804878 L10.9873171,13.7842683 C10.9873171,15.6444512 12.4951829,17.1523171 14.3553659,17.1523171 C16.2153659,17.1523171 17.7234146,15.6444512 17.7234146,13.7842683 L17.7234146,3.36804878 C17.7235976,1.50786585 16.2155488,0 14.3553659,0 L14.3553659,0 Z" id="Shape" fill="#EBF0F3"></path>
                    <circle id="Oval" fill="#D15241" cx="75.5542683" cy="14.3522561" r="4.70158537"></circle>
                    <path d="M75.5570122,0 C73.6968293,0 72.1889634,1.50786585 72.1889634,3.36804878 L72.1889634,13.7842683 C72.1889634,15.6444512 73.6968293,17.1523171 75.5570122,17.1523171 C77.4170122,17.1523171 78.925061,15.6444512 78.925061,13.7842683 L78.925061,3.36804878 C78.925061,1.50786585 77.4170122,0 75.5570122,0 L75.5570122,0 Z" id="Shape" fill="#EBF0F3"></path>
                    <g id="Group" transform="translate(5.670732, 33.658537)" fill="#D5D6DB">
                        <rect id="Rectangle-path" x="33.6658537" y="0.0342073171" width="11.2362805" height="11.2362805"></rect>
                        <rect id="Rectangle-path" x="50.4523171" y="0.0342073171" width="11.2362805" height="11.2362805"></rect>
                        <rect id="Rectangle-path" x="67.2331098" y="0.0342073171" width="11.2362805" height="11.2362805"></rect>
                        <rect id="Rectangle-path" x="0.098597561" y="17.282378" width="11.2362805" height="11.2362805"></rect>
                        <rect id="Rectangle-path" x="16.8823171" y="17.282378" width="11.2362805" height="11.2362805"></rect>
                        <rect id="Rectangle-path" x="33.6658537" y="17.282378" width="11.2362805" height="11.2362805"></rect>
                        <rect id="Rectangle-path" x="50.4523171" y="17.282378" width="11.2362805" height="11.2362805"></rect>
                        <rect id="Rectangle-path" x="67.2331098" y="17.282378" width="11.2362805" height="11.2362805"></rect>
                        <rect id="Rectangle-path" x="0.098597561" y="34.5389634" width="11.2362805" height="11.2362805"></rect>
                        <rect id="Rectangle-path" x="16.8823171" y="34.5389634" width="11.2362805" height="11.2362805"></rect>
                        <rect id="Rectangle-path" x="33.6658537" y="34.5389634" width="11.2362805" height="11.2362805"></rect>
                    </g>
                </g>
            </g>
        </g>
    </g>
</svg>