<?xml version="1.0" encoding="UTF-8" standalone="no"?>
<svg width="20px" height="20px" viewBox="0 0 20 20" version="1.1" xmlns="http://www.w3.org/2000/svg" xmlns:xlink="http://www.w3.org/1999/xlink">
    <!-- Generator: Sketch 46.1 (44463) - http://www.bohemiancoding.com/sketch -->
    <title>Page 1</title>
    <desc>Created with Sketch.</desc>
    <defs></defs>
    <g id="Page-1" stroke="none" stroke-width="1" fill="none" fill-rule="evenodd">
        <g id="14.Popup_Roi_Trang" transform="translate(-1223.000000, -436.000000)" fill="#969696">
            <g id="Group-7" transform="translate(660.000000, 418.000000)">
                <path d="M563.480475,37.5195253 C564.135034,38.174085 564.775355,38.1598554 565.401455,37.4768369 L572.999999,29.9636695 L580.598543,37.4768369 C581.224644,38.1598554 581.864963,38.174085 582.519526,37.5195253 C583.174085,36.8649656 583.159856,36.2246454 582.476835,35.598545 L574.963668,28.0000008 L582.476835,20.4014565 C583.159856,19.7753556 583.174085,19.135037 582.519526,18.4804735 C581.864963,17.8259154 581.224644,17.840144 580.598543,18.5231647 L572.999999,26.0363321 L565.401455,18.5231647 C564.775355,17.840144 564.135034,17.8259154 563.480475,18.4804735 C562.825915,19.135037 562.840145,19.7753556 563.523163,20.4014565 L571.03633,28.0000008 L563.523163,35.598545 C562.840145,36.2246454 562.825915,36.8649656 563.480475,37.5195253 Z" id="Page-1"></path>
            </g>
        </g>
    </g>
</svg>