<?xml version="1.0" encoding="UTF-8" standalone="no"?>
<svg width="81px" height="110px" viewBox="0 0 81 110" version="1.1" xmlns="http://www.w3.org/2000/svg" xmlns:xlink="http://www.w3.org/1999/xlink">
    <!-- Generator: Sketch 46 (44423) - http://www.bohemiancoding.com/sketch -->
    <title>approve</title>
    <desc>Created with Sketch.</desc>
    <defs></defs>
    <g id="Page-1" stroke="none" stroke-width="1" fill="none" fill-rule="evenodd">
        <g id="01.01.-Màn-hình-chính" transform="translate(-1071.000000, -576.000000)">
            <g id="approve" transform="translate(1071.000000, 576.000000)">
                <g id="Layer_1">
                    <path d="M78.954801,9.10980469 L1.9275519,9.10980469 C0.977941176,9.10980469 0.208261246,9.87443359 0.208261246,10.8178125 L0.208261246,108.291992 C0.208261246,109.235586 0.978157439,110 1.9275519,110 L78.954801,110 C79.9044118,110 80.6740917,109.235371 80.6740917,108.291992 L80.6740917,10.8178125 C80.6740917,9.87421875 79.9044118,9.10980469 78.954801,9.10980469 L78.954801,9.10980469 Z" id="Shape" fill="#A61200"></path>
                    <path d="M1.9275519,9.10980469 C0.977941176,9.10980469 0.208261246,9.87443359 0.208261246,10.8178125 L0.208261246,108.291992 C0.208261246,109.235586 0.978157439,110 1.9275519,110 L40.4411765,110 L40.4411765,9.10980469 L1.9275519,9.10980469 L1.9275519,9.10980469 Z" id="Shape" fill="#921202"></path>
                    <path d="M71.6189446,16.3975195 L9.2634083,16.3975195 C8.31379758,16.3975195 7.54411765,17.1621484 7.54411765,18.1055273 L7.54411765,101.915 C7.54411765,102.858594 8.31401384,103.623008 9.2634083,103.623008 L54.1959343,103.623008 C54.6518166,103.623008 55.0893166,103.443184 55.4115484,103.122852 L72.8343426,85.8143945 C73.1567907,85.4940625 73.338019,85.0596484 73.338019,84.606543 L73.338019,18.1055273 C73.3382353,17.1621484 72.5683391,16.3975195 71.6189446,16.3975195 L71.6189446,16.3975195 Z" id="Shape" fill="#FFFFFF"></path>
                    <path d="M54.1959343,86.3147656 L54.1959343,103.623223 L54.1961505,103.623223 C54.6520329,103.623223 55.0893166,103.443398 55.4115484,103.123066 L72.8343426,85.8146094 C73.1567907,85.4942773 73.338019,85.0598633 73.338019,84.6067578 L73.338019,84.6067578 L55.9152249,84.6067578 C54.9658304,84.606543 54.1959343,85.3713867 54.1959343,86.3147656 L54.1959343,86.3147656 Z" id="Shape" fill="#CDD4D5"></path>
                    <path d="M58.7809256,9.10980469 L52.6600346,9.10980469 C51.1079152,3.75289062 46.1816609,0 40.4411765,0 C34.700692,0 29.7744377,3.75289062 28.2223183,9.10980469 L22.1014273,9.10980469 C21.1518166,9.10980469 20.3821367,9.87443359 20.3821367,10.8178125 L20.3821367,24.4823047 C20.3821367,25.4258984 21.1520329,26.1903125 22.1014273,26.1903125 L58.7811419,26.1903125 C59.7307526,26.1903125 60.5004325,25.4256836 60.5004325,24.4823047 L60.5004325,10.8178125 C60.5004325,9.87421875 59.7305363,9.10980469 58.7809256,9.10980469 L58.7809256,9.10980469 Z" id="Shape" fill="#FF8C29"></path>
                    <path d="M28.2223183,9.10980469 L22.1014273,9.10980469 C21.1518166,9.10980469 20.3821367,9.87443359 20.3821367,10.8178125 L20.3821367,24.4823047 C20.3821367,25.4258984 21.1520329,26.1903125 22.1014273,26.1903125 L40.4411765,26.1903125 L40.4411765,0 C34.700692,0 29.7744377,3.75289062 28.2223183,9.10980469 L28.2223183,9.10980469 Z" id="Shape" fill="#F0353D"></path>
                    <path d="M46.766436,13.2801367 C45.9418253,13.2801367 45.2138841,12.6891016 45.0726644,11.8544336 C44.6922578,9.604375 42.7445934,7.97091797 40.4411765,7.97091797 C39.4915657,7.97091797 38.7218858,7.20628906 38.7218858,6.26291016 C38.7218858,5.31953125 39.491782,4.55490234 40.4411765,4.55490234 C44.4305796,4.55490234 47.8047145,7.3871875 48.4638841,11.2889648 C48.6211073,12.2192383 47.9894031,13.0998828 47.0527682,13.2562891 C46.9565311,13.2721875 46.8607266,13.2801367 46.766436,13.2801367 L46.766436,13.2801367 Z" id="Shape" fill="#FFFFFF"></path>
                    <path d="M40.4411765,32.7950391 C28.3691609,32.7950391 18.5480104,42.5517383 18.5480104,54.5445312 C18.5480104,66.5373242 28.3691609,76.2940234 40.4411765,76.2940234 C52.513192,76.2940234 62.3343426,66.5373242 62.3343426,54.5445312 C62.3343426,42.5517383 52.513192,32.7950391 40.4411765,32.7950391 L40.4411765,32.7950391 Z" id="Shape" fill="#4ACFD9"></path>
                    <path d="M18.5480104,54.5445312 C18.5480104,66.5373242 28.3691609,76.2940234 40.4411765,76.2940234 L40.4411765,32.7950391 C28.3691609,32.7950391 18.5480104,42.5517383 18.5480104,54.5445312 L18.5480104,54.5445312 Z" id="Shape" fill="#0295AA"></path>
                    <path d="M33.5637976,64.4514063 C33.1239187,64.4514063 32.6836073,64.2846875 32.3481834,63.95125 L26.846237,58.4854102 C26.1747405,57.8181055 26.1747405,56.7367969 26.846237,56.069707 C27.5177336,55.402832 28.6064014,55.402832 29.2776817,56.069707 L33.5640138,60.3279102 L48.395545,45.5937109 C49.0670415,44.9268359 50.1557093,44.9268359 50.8269896,45.5937109 C51.4984862,46.2610156 51.4984862,47.3423242 50.8269896,48.0094141 L34.779628,63.9514648 C34.4437716,64.2846875 34.0036765,64.4514063 33.5637976,64.4514063 L33.5637976,64.4514063 Z" id="Shape" fill="#FFFFFF"></path>
                </g>
            </g>
        </g>
    </g>
</svg>