<?xml version="1.0" encoding="UTF-8" standalone="no"?>
<svg width="13px" height="14px" viewBox="0 0 13 14" version="1.1" xmlns="http://www.w3.org/2000/svg" xmlns:xlink="http://www.w3.org/1999/xlink">
    <!-- Generator: Sketch 46.1 (44463) - http://www.bohemiancoding.com/sketch -->
    <title>Page 1</title>
    <desc>Created with Sketch.</desc>
    <defs></defs>
    <g id="Page-1" stroke="none" stroke-width="1" fill="none" fill-rule="evenodd" opacity="0.659999967">
        <g id="08.Tra_Cuu_Thu_Tuc_Hanh_Chinh" transform="translate(-1541.000000, -927.000000)" fill="#195FFF">
            <g id="Group-12" transform="translate(1530.000000, 917.000000)">
                <path d="M23.7319588,16.0309289 L18.6927841,10.294847 C18.2639147,9.90171765 17.8439898,9.90171765 17.4329887,10.294847 C17.0219911,10.6879764 17.0309252,11.0989672 17.4597945,11.5278366 L22.0164951,16.6742278 L17.4597945,21.7670107 C17.2810981,21.9457058 17.1917533,22.1512018 17.1917533,22.3835055 C17.1917533,22.6158091 17.2810981,22.8213052 17.4597945,23.0000003 C17.8529239,23.4288682 18.2639147,23.4288682 18.6927841,23.0000003 L23.7319588,17.2639184 C23.9106552,17.085222 24,16.8797266 24,16.6474219 C24,16.4151207 23.9106552,16.2096253 23.7319588,16.0309289 Z M11.2948468,23.0268044 C11.6879758,23.4378031 12.0989683,23.4288682 12.5278363,23.0000003 L17.6206193,17.2639184 C17.7635757,17.085222 17.8350522,16.8886607 17.8350522,16.6742278 C17.8350522,16.4240548 17.7635757,16.2096253 17.6206193,16.0309289 L12.5278363,10.294847 C12.3491413,10.1161506 12.1436452,10.0268058 11.9113416,10.0268058 C11.6790379,10.0268058 11.4735418,10.1161506 11.2948468,10.294847 C10.9017177,10.6879764 10.9017177,11.0989672 11.2948468,11.5278366 L15.8515473,16.6742278 L11.2948468,21.7670107 C10.9017177,22.1958787 10.9017177,22.6158057 11.2948468,23.0268044 Z" id="Page-1" transform="translate(17.500000, 16.664247) scale(-1, 1) translate(-17.500000, -16.664247) "></path>
            </g>
        </g>
    </g>
</svg>