<?xml version="1.0" encoding="UTF-8" standalone="no"?>
<svg width="29px" height="30px" viewBox="0 0 29 30" version="1.1" xmlns="http://www.w3.org/2000/svg" xmlns:xlink="http://www.w3.org/1999/xlink">
    <!-- Generator: Sketch 46 (44423) - http://www.bohemiancoding.com/sketch -->
    <title>Page 1</title>
    <desc>Created with Sketch.</desc>
    <defs></defs>
    <g id="Page-1" stroke="none" stroke-width="1" fill="none" fill-rule="evenodd">
        <g id="02.-Lịch-làm-việc-của-quận" transform="translate(-971.000000, -266.000000)" fill="#52555C">
            <g id="Group-3" transform="translate(971.500000, 266.000000)">
                <path d="M6.32877266,17.578125 L13.2187131,24.0527325 C13.3226351,24.15039 13.4369446,24.2187487 13.5616534,24.2578125 C13.6863583,24.2968763 13.8214505,24.3164062 13.9669421,24.3164062 C14.1124338,24.3164062 14.247526,24.2968763 14.3722309,24.2578125 C14.4969397,24.2187487 14.6112492,24.15039 14.7151712,24.0527325 L21.6051116,17.578125 C21.7921729,17.4023438 21.8856995,17.18262 21.8856995,16.9189462 C21.8856995,16.6552725 21.7921729,16.4355487 21.6051116,16.2597675 C21.4180544,16.0839825 21.1842358,15.9960938 20.9036479,15.9960938 C20.62306,15.9960938 20.3892414,16.0839825 20.2021842,16.2597675 L14.9645809,21.1816425 L14.9645809,0.9375 C14.9645809,0.68359125 14.8658585,0.4638675 14.6684059,0.27832125 C14.4709572,0.09277125 14.2371386,0 13.9669421,0 C13.6967457,0 13.4629271,0.09277125 13.2654784,0.27832125 C13.0680258,0.4638675 12.9693034,0.68359125 12.9693034,0.9375 L12.9693034,21.1816425 L7.73170012,16.2597675 C7.54464286,16.0839825 7.31082427,15.9960938 7.03023639,15.9960938 C6.7496485,15.9960938 6.51582992,16.0839825 6.32877266,16.2597675 C6.1417114,16.4355487 6.04818477,16.6552725 6.04818477,16.9189462 C6.04818477,17.18262 6.1417114,17.4023438 6.32877266,17.578125 L6.32877266,17.578125 Z M23.9433294,3.75 L20.9504132,3.75 L20.9504132,5.625 L23.9433294,5.625 C24.4837184,5.625 24.9513595,5.81054625 25.3462569,6.1816425 C25.7411582,6.552735 25.9386068,6.99218625 25.9386068,7.5 L25.9386068,26.25 C25.9386068,26.7578149 25.7411582,27.1972639 25.3462569,27.5683594 C24.9513595,27.9394549 24.4837184,28.125 23.9433294,28.125 L3.9905549,28.125 C3.45016473,28.125 2.98252597,27.9394549 2.58762544,27.5683594 C2.19272492,27.1972639 1.99527745,26.7578149 1.99527745,26.25 L1.99527745,7.5 C1.99527745,6.99218625 2.19272492,6.552735 2.58762544,6.1816425 C2.98252597,5.81054625 3.45016473,5.625 3.9905549,5.625 L6.98347107,5.625 L6.98347107,3.75 L3.9905549,3.75 C2.88899015,3.75 1.94851693,4.11620625 1.16910808,4.84863375 C0.389698716,5.5810575 0,6.46483875 0,7.5 L0,26.25 C0,27.2851612 0.389698716,28.1689417 1.16910808,28.901367 C1.94851693,29.6337927 2.88899015,30 3.9905549,30 L23.9433294,30 C25.0448941,30 25.9853682,29.6337927 26.7647754,28.901367 C27.5441867,28.1689417 27.9338843,27.2851612 27.9338843,26.25 L27.9338843,7.5 C27.9338843,6.46483875 27.5441867,5.5810575 26.7647754,4.84863375 C25.9853682,4.11620625 25.0448941,3.75 23.9433294,3.75 L23.9433294,3.75 Z" id="Page-1"></path>
            </g>
        </g>
    </g>
</svg>