<?xml version="1.0" encoding="UTF-8" standalone="no"?>
<svg width="58px" height="58px" viewBox="0 0 58 58" version="1.1" xmlns="http://www.w3.org/2000/svg" xmlns:xlink="http://www.w3.org/1999/xlink">
    <!-- Generator: Sketch 46 (44423) - http://www.bohemiancoding.com/sketch -->
    <title>chat (4)</title>
    <desc>Created with Sketch.</desc>
    <defs></defs>
    <g id="Page-1" stroke="none" stroke-width="1" fill="none" fill-rule="evenodd">
        <g id="10.-Góp-ý" transform="translate(-100.000000, -158.000000)" fill-rule="nonzero">
            <g id="chat-(4)" transform="translate(100.000000, 158.000000)">
                <polygon id="Shape" fill="#F6BF58" points="0 41.9232724 5.96614583 41.9232724 0 48.9375 9.94357639 44.9293699 47.7291667 44.9293699 47.7291667 7.85416667 0 7.85416667"></polygon>
                <rect id="Rectangle-path" fill="#CE9232" x="0" y="0" width="47.7291667" height="7.85416667"></rect>
                <polygon id="Shape" fill="#66CEDB" points="10.2708333 50.9884868 39.1072049 50.9884868 54.0225694 58 51.0394965 50.9884868 58 50.9884868 58 19.9375 10.2708333 19.9375"></polygon>
                <rect id="Rectangle-path" fill="#34495E" x="10.2708333" y="12.0833333" width="47.7291667" height="7.85416667"></rect>
                <g id="Group" transform="translate(3.020833, 3.020833)" fill="#FFFFFF">
                    <rect id="Rectangle-path" x="0" y="0" width="1.99375" height="1.98511905"></rect>
                    <rect id="Rectangle-path" x="3.9875" y="0" width="1.99375" height="1.98511905"></rect>
                    <rect id="Rectangle-path" x="7.975" y="0" width="1.99375" height="1.98511905"></rect>
                    <rect id="Rectangle-path" x="9.96875" y="11.9107143" width="1.99375" height="1.98511905"></rect>
                    <rect id="Rectangle-path" x="13.95625" y="11.9107143" width="1.99375" height="1.98511905"></rect>
                    <rect id="Rectangle-path" x="17.94375" y="11.9107143" width="1.99375" height="1.98511905"></rect>
                </g>
                <g id="Group" transform="translate(15.104167, 27.187500)" fill="#FFFFFF">
                    <rect id="Rectangle-path" x="0" y="0" width="38.0625" height="5.890625"></rect>
                    <rect id="Rectangle-path" x="6.00986842" y="9.81770833" width="32.0526316" height="5.890625"></rect>
                </g>
            </g>
        </g>
    </g>
</svg>