<?xml version="1.0" encoding="UTF-8" standalone="no"?>
<svg width="44px" height="52px" viewBox="0 0 44 52" version="1.1" xmlns="http://www.w3.org/2000/svg" xmlns:xlink="http://www.w3.org/1999/xlink">
    <!-- Generator: Sketch 46 (44423) - http://www.bohemiancoding.com/sketch -->
    <title>icon</title>
    <desc>Created with Sketch.</desc>
    <defs></defs>
    <g id="Page-1" stroke="none" stroke-width="1" fill="none" fill-rule="evenodd">
        <g id="03.-Biểu-mẫu-điện-tử-" transform="translate(-876.000000, -339.000000)">
            <g id="file-1---selected" transform="translate(857.000000, 320.000000)">
                <g id="icon" transform="translate(20.000000, 20.000000)">
                    <path d="M39.8421053,15.2173913 L27.9736842,15.2173913 C27.3781053,15.2173913 26.8947368,14.7315217 26.8947368,14.1304348 L26.8947368,3.07259547 C26.8947368,2.65776296 27.1712228,2.30857796 27.5579486,2.20509138 L27.527,2.17391304 L4.23684211,2.17391304 C3.64234211,2.17391304 3.15789474,2.66086957 3.15789474,3.26086957 L3.15789474,22.826087 L1,22.826087 L1,3.26086957 C1,1.46304348 2.45226316,0 4.23684211,0 L27.9736842,0 C28.2596053,0 28.5347368,0.114130435 28.7365,0.318478261 L41.6838684,13.3619565 C41.8867105,13.5652174 42,13.8413043 42,14.1304348 L42,46.7391304 C42,48.5369565 40.5477368,50 38.7631579,50 L4.23684211,50 C2.45226316,50 1,48.5369565 1,46.7391304 L1,37.2028986 L3.15789474,37.2028986 L3.15789474,46.7391304 C3.15789474,47.3391304 3.64234211,47.826087 4.23684211,47.826087 L38.7631579,47.826087 C39.3576579,47.826087 39.8421053,47.3391304 39.8421053,46.7391304 L39.8421053,15.2173913 Z M29.0526316,3.71086957 L29.0526316,13.0434783 L38.3164737,13.0434783 L29.0526316,3.71086957 Z" id="Combined-Shape" stroke="#FDFDFD" fill="#0080FE" opacity="0.900000036"></path>
                    <path d="M34.0277778,39 L0.972222222,39 C0.435555556,39 0,38.4934 0,37.8666667 L0,23.1333333 C0,22.5066 0.435555556,22 0.972222222,22 L34.0277778,22 C34.5644444,22 35,22.5066 35,23.1333333 L35,37.8666667 C35,38.4934 34.5644444,39 34.0277778,39 Z" id="base" stroke="#FFFFFF" stroke-width="1.8" fill-opacity="0.1" fill="#2E92FF"></path>
                    <text id=".doc" font-family="Roboto-Bold, Roboto" font-size="8" font-weight="bold" letter-spacing="0.0727272779" fill="#0080FE">
                        <tspan x="8" y="33">.doc</tspan>
                    </text>
                </g>
            </g>
        </g>
    </g>
</svg>