<?xml version="1.0" encoding="UTF-8" standalone="no"?>
<svg width="27px" height="25px" viewBox="0 0 27 25" version="1.1" xmlns="http://www.w3.org/2000/svg" xmlns:xlink="http://www.w3.org/1999/xlink">
    <!-- Generator: Sketch 46 (44423) - http://www.bohemiancoding.com/sketch -->
    <title>foldr icon</title>
    <desc>Created with Sketch.</desc>
    <defs></defs>
    <g id="Page-1" stroke="none" stroke-width="1" fill="none" fill-rule="evenodd">
        <g id="03.-Biểu-mẫu-điện-tử-" transform="translate(-136.000000, -431.000000)" fill="#FFFFFF">
            <g id="foldr-icon" transform="translate(136.000000, 431.000000)">
                <path d="M25.3999939,8.0667789 L24.1179426,8.0667789 L24.1179426,5.58469308 C24.1179426,4.90025792 23.5429426,4.34365018 22.8358913,4.34365018 L14.502558,4.34365018 C14.352558,4.34365018 14.2076862,4.29276742 14.0923016,4.20030972 L10.4243529,1.24104291 L2.96409646,1.24104291 C2.25704518,1.24104291 1.68204518,1.79765065 1.68204518,2.48208582 L1.68204518,6.82573599 L25.3999939,6.82573599 L25.3999939,8.0667789 L1.68204518,8.0667789 L0.399993896,8.0667789 L0.399993896,2.48208582 C0.399993896,1.11321549 1.5499939,0 2.96409646,0 L10.6564042,0 C10.8064042,0 10.9512759,0.0508827592 11.0666606,0.143340456 L14.7346093,3.10260727 L22.8358913,3.10260727 C24.2499939,3.10260727 25.3999939,4.21582276 25.3999939,5.58469308 L25.3999939,8.0667789 Z" id="Page-1"></path>
                <rect id="Rectangle-path" x="0" y="5.80808081" width="27" height="18.3922559" rx="2"></rect>
            </g>
        </g>
    </g>
</svg>