<?xml version="1.0" encoding="UTF-8" standalone="no"?>
<svg width="57px" height="59px" viewBox="0 0 57 59" version="1.1" xmlns="http://www.w3.org/2000/svg" xmlns:xlink="http://www.w3.org/1999/xlink">
    <!-- Generator: Sketch 46 (44423) - http://www.bohemiancoding.com/sketch -->
    <title>hand-gesture</title>
    <desc>Created with Sketch.</desc>
    <defs></defs>
    <g id="Page-1" stroke="none" stroke-width="1" fill="none" fill-rule="evenodd">
        <g id="01.01.-Màn-hình-chính" transform="translate(-544.000000, -172.000000)">
            <g id="hand-gesture" transform="translate(544.000000, 172.000000)">
                <g id="Layer_1">
                    <g id="Group" transform="translate(26.130150, 0.000000)" fill="#FFE1D6">
                        <path d="M20.9283921,22.0742969 C20.5885841,22.0742969 20.2490082,21.9455801 19.9897972,21.6884922 C19.4714911,21.1742012 19.4714911,20.3401348 19.9897972,19.8256133 C22.541145,17.2942598 22.541145,13.1750918 19.9897972,10.643623 C18.753783,9.41718359 17.1107191,8.74191016 15.3629024,8.74191016 C13.6150857,8.74191016 11.9720219,9.41729883 10.7361238,10.643623 C10.2175855,11.1577988 9.37735603,11.1577988 8.85870158,10.643623 C8.34039553,10.129332 8.34039553,9.29526563 8.85870158,8.78074414 C10.5960662,7.05683789 12.9058554,6.10753711 15.3627863,6.10753711 C17.8197172,6.10753711 20.1297386,7.05695313 21.8669871,8.78074414 C25.4533212,12.3395273 25.4533212,18.129709 21.8669871,21.6882617 C21.607776,21.9455801 21.2680841,22.0742969 20.9283921,22.0742969 L20.9283921,22.0742969 Z" id="Shape"></path>
                        <path d="M18.6229,30.0977207 C18.0222549,30.0977207 17.4777026,29.6903672 17.3326512,29.0851563 C17.1629794,28.377502 17.6035918,27.6673125 18.3167707,27.4989551 C20.5959005,26.961041 22.6813188,25.8028203 24.3473771,24.1495527 C29.3014213,19.2338848 29.3014213,11.2354668 24.3473771,6.31968359 C19.3934491,1.40413086 11.3324719,1.40390039 6.37819546,6.31968359 C3.38867401,9.28604688 2.08448918,13.5191816 2.88929781,17.6437656 C3.02865861,18.3581035 2.55819977,19.0490488 1.83840123,19.1873301 C1.11825429,19.3265332 0.422147093,18.8587969 0.282902426,18.1445742 C-0.689835965,13.1597656 0.887031498,8.04289844 4.5007732,4.45703516 C10.4902682,-1.4857168 20.2353044,-1.48548633 26.2245671,4.45703516 C32.2137137,10.3997871 32.2137137,20.0695645 26.2245671,26.0124316 C24.2106874,28.0107109 21.6886053,29.4109238 18.9312357,30.0616523 C18.8279926,30.086082 18.7245172,30.0977207 18.6229,30.0977207 L18.6229,30.0977207 Z" id="Shape"></path>
                    </g>
                    <path d="M35.126006,25.6518633 L28.4983547,34.0909375 L25.3051342,27.197041 C31.4352675,21.1143945 39.4267965,13.1847715 39.4267965,13.1847715 C40.5681614,12.052248 42.418176,12.0531699 43.5586119,13.1847715 C44.6999769,14.3172949 44.6999769,16.1520566 43.5586119,17.2845801 L35.126006,25.6518633 L35.126006,25.6518633 Z" id="Shape" fill="#FFB14D"></path>
                    <path d="M36.3415806,32.6453223 L32.6302863,38.1906309 L27.5597597,33.1593828 L35.126006,25.651748 C36.267371,24.5192246 38.1173856,24.5201465 39.2578215,25.651748 C40.3991864,26.7842715 40.3991864,28.6190332 39.2578215,29.7515566 L36.3415806,32.6453223 L36.3415806,32.6453223 Z" id="Shape" fill="#FF9E24"></path>
                    <path d="M38.6693705,38.5352969 L36.7621018,42.2905547 L31.6915752,37.2593066 L36.3415806,32.6453223 C37.4829456,31.5127988 39.3329602,31.5137207 40.4733961,32.6453223 C41.614761,33.7778457 41.614761,35.6126074 40.4733961,36.7451309 L38.6693705,38.5352969 L38.6693705,38.5352969 Z" id="Shape" fill="#FF8C00"></path>
                    <path d="M42.801186,42.6349902 C42.801186,42.6349902 42.4323444,43.0009746 41.8325123,43.5961602 L35.8233907,41.359 L38.6692544,38.5351816 C39.8106193,37.4026582 41.660634,37.4035801 42.8010698,38.5351816 C43.9425509,39.6678203 43.9425509,41.502582 42.801186,42.6349902 L42.801186,42.6349902 Z" id="Shape" fill="#FF9E24"></path>
                    <path d="M25.3051342,27.1968105 L18.7309046,33.7201133 C15.9563472,36.4731777 14.8177694,40.2218672 15.3827613,43.7945937 L0.0588799384,58.9998848 L19.5035441,58.9998848 L25.1052676,53.4415547 C28.7068152,54.003207 32.4838414,52.8725273 35.2583988,50.1193477 L41.8326284,43.5960449 L25.3051342,27.1968105 L25.3051342,27.1968105 Z" id="Shape" fill="#FFB14D"></path>
                </g>
            </g>
        </g>
    </g>
</svg>