<?xml version="1.0" encoding="UTF-8" standalone="no"?>
<svg width="22px" height="23px" viewBox="0 0 22 23" version="1.1" xmlns="http://www.w3.org/2000/svg" xmlns:xlink="http://www.w3.org/1999/xlink">
    <!-- Generator: Sketch 46 (44423) - http://www.bohemiancoding.com/sketch -->
    <title>Page 1</title>
    <desc>Created with Sketch.</desc>
    <defs></defs>
    <g id="Page-1" stroke="none" stroke-width="1" fill="none" fill-rule="evenodd">
        <g id="02.-Lịch-làm-việc-của-quận" transform="translate(-116.000000, -1021.000000)" fill="#FFFFFF">
            <g id="Group-10" transform="translate(0.000000, 990.000000)">
                <g id="Group-5" transform="translate(96.000000, 15.000000)">
                    <path d="M40.7231134,24.2207295 C40.9128615,24.334577 41.007732,24.5243215 41.007732,24.7899667 L41.007732,38.0531928 C41.007732,38.5465341 40.7610637,38.7932011 40.2677236,38.7932011 L34.8030468,38.7932011 C34.3476534,38.7932011 34.1199622,38.5465341 34.1199622,38.0531928 L34.1199622,29.9131013 L27.8014296,29.9131013 L27.8014296,38.0531928 C27.8014296,38.5465341 27.5737383,38.7932011 27.118345,38.7932011 L21.6536681,38.7932011 C21.1603268,38.7932011 20.9136598,38.5465341 20.9136598,38.0531928 L20.9136598,24.7899667 C20.9136598,24.5243215 21.0085317,24.334577 21.1982784,24.2207295 L30.3629968,16.87757 C30.6665924,16.6498751 30.9701807,16.6498751 31.2737763,16.87757 L40.7231134,24.2207295 Z" id="Page-1"></path>
                </g>
            </g>
        </g>
    </g>
</svg>