<?xml version="1.0" encoding="UTF-8" standalone="no"?>
<svg width="25px" height="26px" viewBox="0 0 25 26" version="1.1" xmlns="http://www.w3.org/2000/svg" xmlns:xlink="http://www.w3.org/1999/xlink">
    <!-- Generator: Sketch 46 (44423) - http://www.bohemiancoding.com/sketch -->
    <title>printer copy</title>
    <desc>Created with Sketch.</desc>
    <defs></defs>
    <g id="Page-1" stroke="none" stroke-width="1" fill="none" fill-rule="evenodd">
        <g id="03.-Biểu-mẫu-điện-tử-" transform="translate(-1284.000000, -1024.000000)" fill-rule="nonzero" fill="#FFFFFF">
            <g id="Group-4" transform="translate(1264.000000, 1005.000000)">
                <g id="printer-copy" transform="translate(20.000000, 19.000000)">
                    <path d="M21.0793894,5.32932642 L20.4045007,5.32932642 L20.4045007,3.84207254 C20.4045007,1.72435233 18.6628522,0 16.5238901,0 L8.37624073,0 C6.23727867,0 4.49563018,1.72435233 4.49563018,3.84207254 L4.49563018,5.32932642 L3.88061055,5.32932642 C1.7416485,5.32932642 0,7.05367876 0,9.17139896 L0,15.3682902 C0,17.4860104 1.7416485,19.2103627 3.88061055,19.2103627 L4.49018753,19.2103627 L4.49018753,24.081658 C4.49018753,25.1378238 5.36101177,26 6.42777148,26 L18.4614741,26 C19.5282338,26 20.399058,25.1378238 20.399058,24.081658 L20.399058,19.2103627 L21.0793894,19.2103627 C23.2183515,19.2103627 24.96,17.4860104 24.96,15.3682902 L24.96,9.17139896 C24.96,7.05367876 23.2183515,5.32932642 21.0793894,5.32932642 Z M5.95970345,3.84207254 C5.95970345,2.52725389 7.0427911,1.45492228 8.37079808,1.45492228 L16.5130048,1.45492228 C17.8410118,1.45492228 18.9240994,2.52725389 18.9240994,3.84207254 L18.9240994,5.32932642 L5.95970345,5.32932642 L5.95970345,3.84207254 Z M18.9295421,24.0924352 C18.9295421,24.3456995 18.7172787,24.5558549 18.4614741,24.5558549 L6.42777148,24.5558549 C6.17196686,24.5558549 5.95970345,24.3456995 5.95970345,24.0924352 L5.95970345,16.0580311 L18.9295421,16.0580311 L18.9295421,24.0924352 Z M23.4904841,15.3736788 C23.4904841,16.6884974 22.4073964,17.760829 21.0793894,17.760829 L20.4045007,17.760829 L20.4045007,16.0580311 L21.3732926,16.0580311 C21.7814915,16.0580311 22.1080506,15.734715 22.1080506,15.3305699 C22.1080506,14.9264249 21.7814915,14.6031088 21.3732926,14.6031088 L3.41254252,14.6031088 C3.00434365,14.6031088 2.67778456,14.9264249 2.67778456,15.3305699 C2.67778456,15.734715 3.00434365,16.0580311 3.41254252,16.0580311 L4.49563018,16.0580311 L4.49563018,17.760829 L3.88061055,17.760829 C2.55260358,17.760829 1.46951592,16.6884974 1.46951592,15.3736788 L1.46951592,9.17678756 C1.46951592,7.86196891 2.55260358,6.78963731 3.88061055,6.78963731 L21.0793894,6.78963731 C22.4073964,6.78963731 23.4904841,7.86196891 23.4904841,9.17678756 L23.4904841,15.3736788 Z" id="Shape"></path>
                    <path d="M7.98588235,18.72 L16.9741176,18.72 C17.3662745,18.72 17.68,18.4888889 17.68,18.2 C17.68,17.9111111 17.3662745,17.68 16.9741176,17.68 L7.98588235,17.68 C7.59372549,17.68 7.28,17.9111111 7.28,18.2 C7.28,18.4888889 7.59895425,18.72 7.98588235,18.72 Z" id="Shape"></path>
                    <path d="M16.9793464,20.8 L7.98588235,20.8 C7.59372549,20.8 7.28,21.0311111 7.28,21.32 C7.28,21.6088889 7.59372549,21.84 7.98588235,21.84 L16.9741176,21.84 C17.3662745,21.84 17.68,21.6088889 17.68,21.32 C17.68,21.0311111 17.3662745,20.8 16.9793464,20.8 Z" id="Shape"></path>
                    <path d="M21.0657353,8.32 L19.4942647,8.32 C19.0641176,8.32 18.72,8.55111111 18.72,8.84 C18.72,9.12888889 19.0641176,9.36 19.4942647,9.36 L21.0657353,9.36 C21.4958824,9.36 21.84,9.12888889 21.84,8.84 C21.84,8.55111111 21.4958824,8.32 21.0657353,8.32 Z" id="Shape"></path>
                </g>
            </g>
        </g>
    </g>
</svg>