<?xml version="1.0" encoding="UTF-8" standalone="no"?>
<svg width="32px" height="34px" viewBox="0 0 32 34" version="1.1" xmlns="http://www.w3.org/2000/svg" xmlns:xlink="http://www.w3.org/1999/xlink">
    <!-- Generator: Sketch 46 (44423) - http://www.bohemiancoding.com/sketch -->
    <title>rating</title>
    <desc>Created with Sketch.</desc>
    <defs></defs>
    <g id="Page-1" stroke="none" stroke-width="1" fill="none" fill-rule="evenodd">
        <g id="08.-Đánh-giá-độ-hài-lòng" transform="translate(-310.000000, -514.000000)" fill-rule="nonzero" fill="#F87C1A">
            <g id="Group-3-Copy-3" transform="translate(291.000000, 502.000000)">
                <g id="rating" transform="translate(19.000000, 12.000000)">
                    <path d="M30.4337115,22.7931891 C29.6636413,22.3122183 28.6817505,22.2627758 27.8656179,22.6612982 L22.0800507,25.4693138 L22.0800507,25.1641754 C22.0800507,23.6974035 20.9565263,22.5184717 19.4897544,22.5184717 L13.8863158,22.5184717 C12.7430409,22.5184717 11.5740507,22.3398558 10.4818752,22.0019103 L6.83154776,20.8758012 L6.83154776,19.4039259 C6.83154776,18.9334269 6.52104094,18.5147563 6.05060819,18.5147563 L0.939341131,18.5147563 C0.468908382,18.5147563 0.016502924,18.9335595 0.016502924,19.4039259 L0.016502924,32.9488499 C0.016502924,33.4193489 0.468908382,33.7633918 0.939341131,33.7633918 L6.05060819,33.7633918 C6.52104094,33.7633918 6.83154776,33.4193489 6.83154776,32.9488499 L6.83154776,31.5850721 L7.44096296,32.0274698 C8.98488109,33.2691657 10.9617856,33.9337895 12.9429981,33.9337895 L17.8665692,33.9337895 C19.6283392,33.9337895 21.3286706,33.4280312 22.7838441,32.4349396 L30.5227212,27.1624873 C31.2371852,26.6747563 31.663809,25.8720117 31.663809,25.0069669 C31.6636101,24.0987096 31.203848,23.2742261 30.4337115,22.7931891 Z M5.12763743,32.059614 L1.72008187,32.059614 L1.72008187,20.2184678 L5.12757115,20.2184678 L5.12757115,32.059614 L5.12763743,32.059614 Z M29.562039,25.7647096 L21.8231618,31.0275517 C20.6522495,31.8267836 19.2840312,32.2299454 17.8664366,32.2299454 L12.9428655,32.2299454 C11.348577,32.2299454 9.75097466,31.6988694 8.50868226,30.6997466 L6.8314152,29.3986004 L6.8314152,22.6593099 L9.97790643,23.6294035 C11.2333879,24.0180507 12.5719805,24.2222495 13.8861832,24.2222495 L19.4896881,24.2222495 C20.0169201,24.2222495 20.3762066,24.6368772 20.3762066,25.1641754 L20.3762066,26.1939844 C19.3539532,26.4732086 16.9618246,26.9678986 14.5403353,26.5782573 C14.0763314,26.5036296 13.6562027,26.8195049 13.5813762,27.2839727 C13.5066823,27.7485068 13.831306,28.1856023 14.2957739,28.2603626 C15.0364834,28.3795283 15.7724211,28.4273138 16.470117,28.4273138 C19.2297505,28.4273138 21.455922,27.6787836 21.5718402,27.6390838 C21.6034542,27.6282807 21.6348031,27.6152904 21.6642963,27.6012398 C21.6663509,27.6002456 21.6690682,27.5996491 21.6711228,27.598655 L28.6477505,24.1920936 C28.9366511,24.0511228 29.2586238,24.0678908 29.5310877,24.2380897 C29.8034854,24.4082885 29.9598986,24.6901637 29.9598986,25.0114074 C29.9597661,25.313232 29.8111072,25.5947096 29.562039,25.7647096 Z" id="Shape"></path>
                    <path d="M6.74379727,7.87076803 L10.9564172,10.9407096 L9.34754776,15.9013957 C9.19100195,16.3838908 9.36159844,16.9083392 9.77205068,17.206386 C9.97717739,17.3553762 10.2175634,17.4299376 10.4580819,17.4298051 C10.6985341,17.4298051 10.9392515,17.3552437 11.1445107,17.2059883 L15.3536179,14.1467173 L19.5625926,17.2023431 C19.9730448,17.5002573 20.5244678,17.500191 20.9347212,17.2020117 C21.3449084,16.9038324 21.5154386,16.3795166 21.3588928,15.8970214 L19.7502885,10.9413723 L23.9631735,7.87070175 C24.3728304,7.57205848 24.5424327,7.03594542 24.3853567,6.55398051 C24.2282807,6.07201559 23.7822378,5.73658869 23.2753528,5.73658869 L18.0710331,5.73658869 L16.4636881,0.801220273 C16.3070097,0.318526316 15.860768,0 15.3532865,0 C14.8458051,0 14.3996296,0.315610136 14.2429513,0.798038986 L12.6354737,5.73652242 L7.43135283,5.73652242 C6.92440156,5.73652242 6.4782924,6.07201559 6.32128265,6.55417934 C6.1642729,7.0362768 6.33407407,7.57232359 6.74379727,7.87076803 Z M13.025115,7.44030019 C13.5323977,7.44030019 13.9786394,7.12773879 14.1354503,6.64517739 L15.3532865,2.9028577 L16.5711228,6.64226121 C16.7279337,7.12475634 17.1741754,7.44023392 17.6814581,7.44023392 L21.6293021,7.44023392 L18.4323743,9.78205848 C18.0232476,10.0803704 17.8534464,10.6102534 18.0097271,11.0916218 L19.2294191,14.8521676 L16.0392515,12.5376491 C15.6286667,12.2394698 15.0771111,12.2405302 14.6670565,12.5387758 L11.4770214,14.8577349 L12.6969786,11.0961287 C12.8531267,10.6143626 12.6831267,10.0789786 12.2739337,9.78099805 L9.07760234,7.44036647 L13.025115,7.44036647 L13.025115,7.44030019 Z" id="Shape"></path>
                </g>
            </g>
        </g>
    </g>
</svg>