<?xml version="1.0" encoding="UTF-8" standalone="no"?>
<svg width="89px" height="100px" viewBox="0 0 89 100" version="1.1" xmlns="http://www.w3.org/2000/svg" xmlns:xlink="http://www.w3.org/1999/xlink">
    <!-- Generator: Sketch 46 (44423) - http://www.bohemiancoding.com/sketch -->
    <title>book</title>
    <desc>Created with Sketch.</desc>
    <defs></defs>
    <g id="Page-1" stroke="none" stroke-width="1" fill="none" fill-rule="evenodd">
        <g id="01.01.-Màn-hình-chính" transform="translate(-155.000000, -856.000000)">
            <g id="book" transform="translate(155.000000, 856.000000)">
                <g id="Layer_1">
                    <path d="M62.5926269,86.2068359 L3.64372404,86.2068359 C1.72856917,86.2068359 0.176176178,84.6630859 0.176176178,82.7585937 L0.176176178,5.17246094 C0.176176178,3.26796875 1.72856917,1.72421875 3.64372404,1.72421875 L62.5926269,1.72421875 C64.5077817,1.72421875 66.0601747,3.26796875 66.0601747,5.17246094 L66.0601747,82.7585937 C66.0601747,84.6630859 64.5077817,86.2068359 62.5926269,86.2068359 L62.5926269,86.2068359 Z" id="Shape" fill="#7F8499"></path>
                    <path d="M40.0532712,77.5861328 C40.0532712,80.6136719 40.6036008,83.5068359 41.5650081,86.2068359 L62.5926269,86.2068359 C64.5075853,86.2068359 66.0601747,84.6628906 66.0601747,82.7585937 L66.0601747,51.7242187 C51.6970042,51.7242187 40.0532712,63.3029297 40.0532712,77.5861328 L40.0532712,77.5861328 Z" id="Shape" fill="#707487"></path>
                    <ellipse id="Oval" fill="#FFDC64" cx="66.0601747" cy="77.5861328" rx="22.5393557" ry="22.4138672"></ellipse>
                    <path d="M71.6948664,96.2644531 C59.2466543,96.2644531 49.1555107,86.2292969 49.1555107,73.8505859 C49.1555107,67.2796875 52.0163604,61.3880859 56.5462683,57.2884766 C48.8593304,60.8580078 43.520819,68.5927734 43.520819,77.5861328 C43.520819,89.9648438 53.6119627,100 66.0601747,100 C71.9006998,100 77.2050366,97.7720703 81.2089692,94.1480469 C78.3155161,95.4919922 75.0995643,96.2644531 71.6948664,96.2644531 L71.6948664,96.2644531 Z" id="Shape" fill="#FFC850"></path>
                    <path d="M23.1012733,19.7960937 L19.2477876,17.2414063 L15.394302,19.7960937 C14.8182432,20.1779297 14.046564,19.7673828 14.046564,19.0789062 L14.046564,1.72421875 C14.046564,0.772070312 14.8229569,0 15.7804362,0 L22.7155319,0 C23.6730111,0 24.449404,0.772070312 24.449404,1.72421875 L24.449404,19.0789062 C24.4492076,19.7673828 23.677332,20.1779297 23.1012733,19.7960937 L23.1012733,19.7960937 Z" id="Shape" fill="#FFDC64"></path>
                    <path d="M73.8739909,73.2625 L66.3074499,73.2625 C68.5278197,71.3890625 69.7948347,68.9 70.2705301,67.1695312 C70.6083484,65.9402344 70.0845336,64.5720703 68.9206317,64.0386719 C67.4073235,63.3451172 65.6866105,64.1865234 65.2753364,65.7210937 C65.1398162,66.2279297 63.8142722,70.6761719 59.1248826,70.6761719 L59.1248826,70.6761719 C57.2097277,70.6761719 55.6573347,72.2199219 55.6573347,74.1244141 L55.6573347,85.33125 C55.6573347,87.2357422 57.2097277,88.7794922 59.1248826,88.7794922 L70.5566936,88.7794922 C72.9946812,88.7794922 75.1052601,87.0957031 75.6341814,84.7291016 L77.2590482,77.4585937 C77.7402429,75.3054687 76.0922002,73.2625 73.8739909,73.2625 L73.8739909,73.2625 Z" id="Shape" fill="#FFFFFF"></path>
                    <g id="Group" transform="translate(13.159202, 35.742188)" fill="#FFDC64">
                        <path d="M24.2038965,0.558398438 L25.9204849,4.0171875 L29.7588473,4.571875 C30.469837,4.67460938 30.7538401,5.54355469 30.2392564,6.04238281 L27.4616828,8.73457031 L28.117286,12.5361328 C28.2386649,13.2404297 27.4954646,13.7773438 26.859502,13.4449219 L23.4263252,11.6498047 L19.9931484,13.4447266 C19.3569893,13.7773438 18.6139855,13.2402344 18.7353644,12.5359375 L19.3909676,8.734375 L16.613394,6.0421875 C16.0988103,5.54355469 16.3828133,4.67460938 17.0938031,4.57167969 L20.9321654,4.01699219 L22.6487538,0.558203125 C22.967128,-0.0822265625 23.8859152,-0.0822265625 24.2038965,0.558398438 L24.2038965,0.558398438 Z" id="Shape"></path>
                        <path d="M40.4064092,0.558398438 L42.1229976,4.0171875 L45.9613599,4.571875 C46.6723496,4.67460938 46.9563527,5.54355469 46.441769,6.04238281 L43.6641954,8.73457031 L44.3197986,12.5361328 C44.4411775,13.2404297 43.6979772,13.7773438 43.0620146,13.4449219 L39.6288378,11.65 L36.195661,13.4449219 C35.559502,13.7775391 34.8164981,13.2404297 34.937877,12.5361328 L35.5934802,8.73457031 L32.8159066,6.04238281 C32.3013229,5.54375 32.585326,4.67480469 33.2963157,4.571875 L37.1346781,4.0171875 L38.8512665,0.558398438 C39.1694442,-0.0822265625 40.0884278,-0.0822265625 40.4064092,0.558398438 L40.4064092,0.558398438 Z" id="Shape"></path>
                        <path d="M7.95483565,0.464453125 L9.71816868,4.0171875 L13.6608226,4.58671875 C14.3291923,4.68320313 14.5959116,5.5 14.1125564,5.96875 L11.2595629,8.73417969 L11.9332355,12.6390625 C12.0475438,13.3011719 11.3487313,13.8058594 10.7508714,13.4933594 L7.22440175,11.6498047 L3.69793209,13.4933594 C3.10026865,13.8058594 2.40145611,13.3011719 2.515568,12.6390625 L3.18924056,8.73417969 L0.336247065,5.96875 C-0.147500903,5.5 0.119611252,4.68320313 0.787980856,4.58671875 L4.73063482,4.0171875 L6.49396785,0.464453125 C6.79230856,-0.137890625 7.65590573,-0.137890625 7.95483565,0.464453125 L7.95483565,0.464453125 Z" id="Shape"></path>
                    </g>
                    <path d="M7.1112719,86.2068359 L3.64372404,86.2068359 C1.72856917,86.2068359 0.176176178,84.6630859 0.176176178,82.7585937 L0.176176178,5.17246094 C0.176176178,3.26796875 1.72856917,1.72421875 3.64372404,1.72421875 L7.1112719,1.72421875 L7.1112719,86.2068359 L7.1112719,86.2068359 Z" id="Shape" fill="#707487"></path>
                    <path d="M15.7802398,0 C14.8227605,0 14.0463676,0.772070312 14.0463676,1.72421875 L14.0463676,19.0789062 C14.0463676,19.7675781 14.8180468,20.178125 15.3941056,19.7960937 L19.2477876,17.2414062 L19.2477876,0 L15.7802398,0 L15.7802398,0 Z" id="Shape" fill="#FFC850"></path>
                </g>
            </g>
        </g>
    </g>
</svg>