<?xml version="1.0" encoding="UTF-8" standalone="no"?>
<svg width="110px" height="109px" viewBox="0 0 110 109" version="1.1" xmlns="http://www.w3.org/2000/svg" xmlns:xlink="http://www.w3.org/1999/xlink">
    <!-- Generator: Sketch 46 (44423) - http://www.bohemiancoding.com/sketch -->
    <title>search</title>
    <desc>Created with Sketch.</desc>
    <defs></defs>
    <g id="Page-1" stroke="none" stroke-width="1" fill="none" fill-rule="evenodd">
        <g id="01.01.-Màn-hình-chính" transform="translate(-145.000000, -346.000000)">
            <g id="search" transform="translate(145.000000, 346.000000)">
                <g id="Layer_1">
                    <path d="M58.9844922,66.3380954 L49.8985352,9.19996882 C49.751582,8.27551259 48.88125,7.64455835 47.9550586,7.79163093 L1.43214844,15.1581235 C0.987207031,15.2284439 0.588457031,15.4724215 0.323984375,15.8360295 C0.059296875,16.1998519 -0.0496289063,16.6537187 0.0210546875,17.0975092 L9.10701172,74.2358502 C9.17769531,74.679855 9.42197266,75.0777657 9.78634766,75.341896 C10.0783203,75.5535004 10.4278711,75.6651984 10.7842969,75.6651984 C10.8728125,75.6651984 10.9617578,75.6581235 11.0504883,75.644188 L57.5736133,68.2774811 C58.0183398,68.2071607 58.4173047,67.9631831 58.6819922,67.5995751 C58.9460352,67.2357527 59.0551758,66.7821003 58.9844922,66.3380954 L58.9844922,66.3380954 Z" id="Shape" fill="#FCFCFD"></path>
                    <g id="Group" transform="translate(12.890625, 23.583067)" fill="#0072E4">
                        <path d="M1.81306641,7.52878693 C0.992363281,7.52878693 0.270488281,6.93385047 0.137714844,6.09922429 C-0.00923828125,5.17476807 0.622617188,4.30626803 1.54902344,4.15962423 L26.5998047,0.192737975 C27.5262109,0.0450222188 28.396543,0.67661963 28.5434961,1.60107586 C28.6906641,2.52553208 28.0585938,3.39403212 27.1321875,3.54067592 L2.08119141,7.50756217 C1.99117188,7.5221408 1.90136719,7.52878693 1.81306641,7.52878693 L1.81306641,7.52878693 Z" id="Shape"></path>
                        <path d="M4.08460937,21.8136938 C3.26390625,21.8136938 2.54203125,21.2187573 2.40925781,20.3841311 C2.26230469,19.4596749 2.89416016,18.5911749 3.82056641,18.4447455 L28.8713477,14.4778592 C29.7968945,14.3303578 30.6678711,14.9617409 30.8150391,15.8861971 C30.9619922,16.8106533 30.3301367,17.6791533 29.4037305,17.8255828 L4.35294922,21.792469 C4.26271484,21.8066189 4.173125,21.8136938 4.08460937,21.8136938 L4.08460937,21.8136938 Z" id="Shape"></path>
                        <path d="M6.3559375,36.0981718 C5.53523437,36.0981718 4.81335937,35.5032354 4.68058594,34.6686092 C4.53363281,33.744153 5.16548828,32.8756529 6.09189453,32.7292235 L31.1426758,28.7623373 C32.0686523,28.6152647 32.9391992,29.2462189 33.0861523,30.1706751 C33.2331055,31.0951314 32.60125,31.9636314 31.6748437,32.1100608 L6.62427734,36.0769471 C6.53425781,36.0910969 6.44445312,36.0981718 6.3559375,36.0981718 L6.3559375,36.0981718 Z" id="Shape"></path>
                    </g>
                    <path d="M109.29875,27.9890271 L71.1822461,0.370682934 C70.8178711,0.106552584 70.3630469,-0.00192952366 69.9181055,0.0683908942 C69.4733789,0.138711312 69.0744141,0.382688859 68.8099414,0.746296874 L34.7466797,47.5606143 C34.4819922,47.9244367 34.3730664,48.3783036 34.44375,48.822094 C34.5144336,49.2660989 34.7587109,49.6640095 35.1233008,49.9281399 L73.2402344,77.5462696 C73.5416602,77.7645202 73.8905664,77.8697864 74.2366797,77.8697864 C74.7617578,77.8697864 75.2799609,77.6273096 75.6125391,77.1706556 L109.675586,30.3565526 C110.22666,29.5986786 110.058008,28.5387269 109.29875,27.9890271 L109.29875,27.9890271 Z" id="Shape" fill="#CDD4D5"></path>
                    <g id="Group" transform="translate(51.562500, 18.008888)">
                        <path d="M39.4251172,18.3767833 C39.0790039,18.3767833 38.7300977,18.2717315 38.4286719,18.0532665 L17.9044336,3.18178452 C17.1451758,2.63165588 16.9765234,1.57191861 17.5278125,0.814258985 C18.0793164,0.0568137522 19.1410742,-0.111269198 19.900332,0.438645046 L40.4247852,15.3101271 C41.184043,15.8602557 41.3526953,16.919993 40.8014062,17.6776526 C40.4686133,18.1340921 39.9504102,18.3767833 39.4251172,18.3767833 L39.4251172,18.3767833 Z" id="Shape" fill="#0072E4"></path>
                        <path d="M30.9093555,30.0802019 C30.5632422,30.0802019 30.2143359,29.9751501 29.9129102,29.7566851 L9.38867188,14.8852031 C8.62941406,14.3350745 8.46076172,13.2753372 9.01205078,12.5176776 C9.56355469,11.7602323 10.6253125,11.5921494 11.3845703,12.1420636 L31.9090234,27.0135456 C32.6680664,27.5636743 32.8369336,28.6234116 32.2856445,29.3810712 C31.9528516,29.8375107 31.4346484,30.0802019 30.9093555,30.0802019 L30.9093555,30.0802019 Z" id="Shape" fill="#0072E4"></path>
                        <path d="M22.3933789,41.7838349 C22.0472656,41.7838349 21.6983594,41.678783 21.3969336,41.4603181 L0.872480469,26.588836 C0.1134375,26.0387074 -0.0552148438,24.9789701 0.496074219,24.2213105 C1.04714844,23.4638653 2.10912109,23.2955679 2.86859375,23.8456966 L23.3926172,38.7171786 C24.151875,39.2673072 24.3205273,40.3270445 23.7692383,41.0847041 C23.4370898,41.5409293 22.9188867,41.7838349 22.3933789,41.7838349 L22.3933789,41.7838349 Z" id="Shape" fill="#F0353D"></path>
                    </g>
                    <path d="M70.5437305,32.5896546 L23.4390234,32.5896546 C22.5010156,32.5896546 21.7404687,33.3486006 21.7404687,34.284634 L21.7404687,92.1377563 C21.7404687,93.0737897 22.5010156,93.8327356 23.4390234,93.8327356 L70.5439453,93.8327356 C71.482168,93.8327356 72.2425,93.0737897 72.2425,92.1377563 L72.2425,34.284634 C72.2422852,33.3486006 71.4819531,32.5896546 70.5437305,32.5896546 L70.5437305,32.5896546 Z" id="Shape" fill="#FCFCFD"></path>
                    <path d="M23.4390234,32.5896546 C22.5010156,32.5896546 21.7404687,33.3486006 21.7404687,34.284634 L21.7404687,92.1377563 C21.7404687,93.0737897 22.5010156,93.8327356 23.4390234,93.8327356 L46.9914844,93.8327356 L46.9914844,32.5896546 L23.4390234,32.5896546 L23.4390234,32.5896546 Z" id="Shape" fill="#CDD4D5"></path>
                    <g id="Group" transform="translate(32.441406, 46.951742)" fill="#0072E4">
                        <path d="M27.2320898,3.49093709 L1.86785156,3.49093709 C0.92984375,3.49093709 0.169296875,2.73199111 0.169296875,1.79595775 C0.169296875,0.859924378 0.92984375,0.100978405 1.86785156,0.100978405 L27.2320898,0.100978405 C28.1703125,0.100978405 28.9306445,0.859924378 28.9306445,1.79595775 C28.9306445,2.73199111 28.1703125,3.49093709 27.2320898,3.49093709 L27.2320898,3.49093709 Z" id="Shape"></path>
                        <path d="M27.2320898,17.9544321 L1.86785156,17.9544321 C0.92984375,17.9544321 0.169296875,17.1954861 0.169296875,16.2594527 C0.169296875,15.3234193 0.92984375,14.5644734 1.86785156,14.5644734 L27.2320898,14.5644734 C28.1703125,14.5644734 28.9306445,15.3234193 28.9306445,16.2594527 C28.9306445,17.1954861 28.1703125,17.9544321 27.2320898,17.9544321 L27.2320898,17.9544321 Z" id="Shape"></path>
                        <path d="M27.2320898,32.4177126 L1.86785156,32.4177126 C0.92984375,32.4177126 0.169296875,31.6587667 0.169296875,30.7227333 C0.169296875,29.7866999 0.92984375,29.027754 1.86785156,29.027754 L27.2320898,29.027754 C28.1703125,29.027754 28.9306445,29.7866999 28.9306445,30.7227333 C28.9306445,31.6587667 28.1703125,32.4177126 27.2320898,32.4177126 L27.2320898,32.4177126 Z" id="Shape"></path>
                    </g>
                    <path d="M81.4141797,90.2168083 C80.9795508,90.2168083 80.544707,90.051298 80.2129883,89.7202775 L72.9660938,82.4886372 C72.3028711,81.8268106 72.3028711,80.7535667 72.9660938,80.0917401 C73.6297461,79.4299135 74.7048242,79.4299135 75.3682617,80.0917401 L82.6151563,87.3233804 C83.2783789,87.985207 83.2783789,89.0584509 82.6151563,89.7202775 C82.2834375,90.051298 81.8488086,90.2168083 81.4141797,90.2168083 L81.4141797,90.2168083 Z" id="Shape" fill="#365558"></path>
                    <g id="Group" transform="translate(39.746094, 46.951742)" fill="#4ACFD9">
                        <path d="M21.7389648,0.101192796 C9.81341797,0.101192796 0.111503906,9.78268496 0.111503906,21.6831293 C0.111503906,33.5835737 9.81341797,43.2650659 21.7389648,43.2650659 C33.6645117,43.2650659 43.3664258,33.5835737 43.3664258,21.6831293 C43.3664258,9.78268496 33.6645117,0.101192796 21.7389648,0.101192796 L21.7389648,0.101192796 Z" id="Shape"></path>
                        <path d="M6.45326172,6.42960162 C2.53708984,10.3375302 0.111503906,15.7331215 0.111503906,21.6831293 C0.111503906,33.5835737 9.81341797,43.2650659 21.7389648,43.2650659 C27.7015234,43.2650659 33.1084961,40.8448 37.024668,36.9366571 L6.45326172,6.42960162 L6.45326172,6.42960162 Z" id="Shape"></path>
                    </g>
                    <path d="M61.4850586,54.2845755 C53.5556055,54.2845755 47.1044922,60.7221096 47.1044922,68.6348718 C47.1044922,76.5476339 53.5556055,82.985168 61.4850586,82.985168 C69.4145117,82.985168 75.865625,76.5476339 75.865625,68.6348718 C75.865625,60.7221096 69.4147266,54.2845755 61.4850586,54.2845755 L61.4850586,54.2845755 Z" id="Shape" fill="#F4F4F4"></path>
                    <path d="M101.300977,100.856202 L85.927832,85.5156311 C85.6092188,85.1976885 85.1773828,85.0191003 84.7266406,85.0191003 C84.2761133,85.0191003 83.8442773,85.1976885 83.5254492,85.5156311 L78.4012109,90.6290832 C77.7379883,91.2909098 77.7379883,92.3641537 78.4012109,93.0261947 L93.7741406,108.366765 C94.1058594,108.697786 94.5404883,108.863296 94.975332,108.863296 C95.4099609,108.863296 95.8448047,108.697572 96.1765234,108.366765 L101.300977,103.253099 C101.619375,102.935371 101.79834,102.504229 101.79834,102.05465 C101.79834,101.605071 101.619375,101.174144 101.300977,100.856202 L101.300977,100.856202 Z" id="Shape" fill="#FF8C29"></path>
                    <path d="M95.0019727,101.064376 C94.5673438,101.064376 94.1325,100.898866 93.8007813,100.567845 L85.6481055,92.4323302 C84.9848828,91.7705036 84.9848828,90.6972597 85.6481055,90.0354331 C86.3117578,89.3736065 87.3868359,89.3736065 88.0502734,90.0354331 L96.2029492,98.170948 C96.8661719,98.8327746 96.8661719,99.9060186 96.2029492,100.567845 C95.8714453,100.898866 95.4366016,101.064376 95.0019727,101.064376 L95.0019727,101.064376 Z" id="Shape" fill="#FFFFFF"></path>
                    <g id="Group" transform="translate(56.503906, 60.458408)" fill="#0072E4">
                        <path d="M4.07537109,15.2951197 C3.64074219,15.2951197 3.20589844,15.1296094 2.87417969,14.7985889 C2.21095703,14.1367623 2.21095703,13.0635184 2.87417969,12.4016917 L7.40351562,7.88188976 C8.06695312,7.22006315 9.14224609,7.22006315 9.80568359,7.88188976 C10.4691211,8.54371638 10.4689062,9.61696032 9.80568359,10.2787869 L5.27634766,14.7985889 C4.94484375,15.1296094 4.51,15.2951197 4.07537109,15.2951197 L4.07537109,15.2951197 Z" id="Shape"></path>
                        <path d="M1.81070313,8.5154167 C1.37607422,8.5154167 0.941230469,8.34990645 0.609511719,8.01888594 C-0.0537109375,7.35705933 -0.0537109375,6.28381539 0.609511719,5.62198877 L5.59173828,0.650249474 C6.25539063,-0.011577142 7.33046875,-0.011577142 7.99390625,0.650249474 C8.65712891,1.31207609 8.65712891,2.38532003 7.99390625,3.04714664 L3.01167969,8.01888594 C2.68017578,8.35012084 2.24533203,8.5154167 1.81070313,8.5154167 L1.81070313,8.5154167 Z" id="Shape"></path>
                    </g>
                </g>
            </g>
        </g>
    </g>
</svg>