<?xml version="1.0" encoding="UTF-8" standalone="no"?>
<svg width="31px" height="30px" viewBox="0 0 31 30" version="1.1" xmlns="http://www.w3.org/2000/svg" xmlns:xlink="http://www.w3.org/1999/xlink">
    <!-- Generator: Sketch 46 (44423) - http://www.bohemiancoding.com/sketch -->
    <title>Page 1</title>
    <desc>Created with Sketch.</desc>
    <defs></defs>
    <g id="Page-1" stroke="none" stroke-width="1" fill="none" fill-rule="evenodd">
        <g id="02.-Lịch-làm-việc-của-quận" transform="translate(-1500.000000, -266.000000)" fill="#52555C">
            <g id="Group-7" transform="translate(1408.250000, 264.000000)">
                <path d="M121.707031,30.359375 L113.972656,22.7421875 C114.988288,21.6484325 115.789059,20.38868 116.375,18.9628925 C116.960941,17.5371013 117.253906,16.0234438 117.253906,14.421875 C117.253906,12.703115 116.921878,11.0918038 116.257813,9.5878925 C115.593748,8.0839775 114.690436,6.77051375 113.547853,5.64746 C112.405269,4.52441 111.067389,3.63574625 109.534179,2.98144625 C108.000969,2.32714625 106.365241,2 104.626955,2 C102.888665,2 101.252938,2.32714625 99.7197275,2.98144625 C98.1865175,3.63574625 96.8486375,4.52441 95.7060545,5.64746 C94.5634708,6.77051375 93.6601595,8.0839775 92.9960938,9.5878925 C92.3320279,11.0918038 92,12.703115 92,14.421875 C92,16.140635 92.3320279,17.7519463 92.9960938,19.2558575 C93.6601595,20.7597725 94.5634708,22.0732363 95.7060545,23.19629 C96.8486375,24.31934 98.1865175,25.2080038 99.7197275,25.8623038 C101.252938,26.5166038 102.888665,26.84375 104.626955,26.84375 C106.130866,26.84375 107.556635,26.59961 108.904295,26.11133 C110.251959,25.6230463 111.472651,24.9394588 112.566406,24.060545 L120.33008,31.7070313 C120.525391,31.9023447 120.75488,32 121.018554,32 C121.282228,32 121.511716,31.9023447 121.707031,31.7070313 C121.902346,31.5312493 122,31.3115248 122,31.0478518 C122,30.7841784 121.902346,30.5546885 121.707031,30.359375 L121.707031,30.359375 L121.707031,30.359375 Z M104.626955,24.939455 C103.14257,24.939455 101.755865,24.6611338 100.466795,24.1044913 C99.1777287,23.5478488 98.0498113,22.7959025 97.0830088,21.8486338 C96.1162063,20.9013613 95.3496121,19.7880913 94.7832031,18.50879 C94.2167941,17.229485 93.9335938,15.8671963 93.9335938,14.421875 C93.9335938,12.9765538 94.2167941,11.614265 94.7832031,10.33496 C95.3496121,9.05565875 96.1162063,7.94238875 97.0830088,6.99511625 C98.0498113,6.0478475 99.1777287,5.29590125 100.466795,4.73925875 C101.755865,4.18261625 103.14257,3.904295 104.626955,3.904295 C106.091803,3.904295 107.473625,4.18261625 108.77246,4.73925875 C110.071295,5.29590125 111.204095,6.0478475 112.170898,6.99511625 C113.1377,7.94238875 113.899411,9.05565875 114.456054,10.33496 C115.012696,11.614265 115.291018,12.9765538 115.291018,14.421875 C115.291018,15.8671963 115.012696,17.229485 114.456054,18.50879 C113.899411,19.7880913 113.1377,20.9013613 112.170898,21.8486338 C111.204095,22.7959025 110.071295,23.5478488 108.77246,24.1044913 C107.473625,24.6611338 106.091803,24.939455 104.626955,24.939455 L104.626955,24.939455 Z M109.8125,14.1875 C109.8125,14.4414087 109.719729,14.6611325 109.534179,14.8466787 C109.348633,15.0322287 109.128909,15.125 108.875,15.125 L105.125,15.125 L105.125,18.875 C105.125,19.1289088 105.032229,19.3486325 104.846679,19.5341787 C104.661133,19.7197287 104.441409,19.8125 104.1875,19.8125 C103.933591,19.8125 103.713868,19.7197287 103.528321,19.5341787 C103.342771,19.3486325 103.25,19.1289088 103.25,18.875 L103.25,15.125 L99.5,15.125 C99.2460913,15.125 99.0263675,15.0322287 98.8408213,14.8466787 C98.6552712,14.6611325 98.5625,14.4414087 98.5625,14.1875 C98.5625,13.9335912 98.6552712,13.7138675 98.8408213,13.5283212 C99.0263675,13.3427712 99.2460913,13.25 99.5,13.25 L103.25,13.25 L103.25,9.5 C103.25,9.24609125 103.342771,9.0263675 103.528321,8.84082125 C103.713868,8.65527125 103.933591,8.5625 104.1875,8.5625 C104.441409,8.5625 104.661133,8.65527125 104.846679,8.84082125 C105.032229,9.0263675 105.125,9.24609125 105.125,9.5 L105.125,13.25 L108.875,13.25 C109.128909,13.25 109.348633,13.3427712 109.534179,13.5283212 C109.719729,13.7138675 109.8125,13.9335912 109.8125,14.1875 L109.8125,14.1875 Z" id="Page-1"></path>
            </g>
        </g>
    </g>
</svg>