<?xml version="1.0" encoding="UTF-8" standalone="no"?>
<svg width="26px" height="28px" viewBox="0 0 26 28" version="1.1" xmlns="http://www.w3.org/2000/svg" xmlns:xlink="http://www.w3.org/1999/xlink">
    <!-- Generator: Sketch 46 (44423) - http://www.bohemiancoding.com/sketch -->
    <title>search icon</title>
    <desc>Created with Sketch.</desc>
    <defs></defs>
    <g id="Page-1" stroke="none" stroke-width="1" fill="none" fill-rule="evenodd">
        <g id="03.-Biểu-mẫu-điện-tử-" transform="translate(-1767.000000, -172.000000)" fill="#FFFFFF">
            <path d="M1792.52797,196.628038 L1787.16889,191.036018 C1788.67649,189.035044 1789.58366,186.51755 1789.58366,183.781583 C1789.58366,177.285291 1784.51829,172 1778.29255,172 C1772.06537,172 1767,177.285291 1767,183.781583 C1767,190.276429 1772.06537,195.56172 1778.29255,195.56172 C1780.73192,195.56172 1782.98753,194.739917 1784.83659,193.36253 L1790.24631,199.008083 C1790.56172,199.336515 1790.97407,199.500007 1791.38786,199.500007 C1791.80021,199.500007 1792.21256,199.336515 1792.52797,199.008083 C1793.15734,198.351219 1793.15734,197.286348 1792.52797,196.628038 L1792.52797,196.628038 Z M1770.225,183.781583 C1770.225,179.141581 1773.84498,175.366787 1778.29255,175.366787 C1782.74013,175.366787 1786.35722,179.141581 1786.35722,183.781583 C1786.35722,188.421586 1782.74013,192.194933 1778.29255,192.194933 C1773.84498,192.194933 1770.225,188.421586 1770.225,183.781583 L1770.225,183.781583 Z" id="search-icon"></path>
        </g>
    </g>
</svg>