<?xml version="1.0" encoding="UTF-8" standalone="no"?>
<svg width="31px" height="30px" viewBox="0 0 31 30" version="1.1" xmlns="http://www.w3.org/2000/svg" xmlns:xlink="http://www.w3.org/1999/xlink">
    <!-- Generator: Sketch 46 (44423) - http://www.bohemiancoding.com/sketch -->
    <title>Page 1</title>
    <desc>Created with Sketch.</desc>
    <defs></defs>
    <g id="Page-1" stroke="none" stroke-width="1" fill="none" fill-rule="evenodd">
        <g id="02.-Lịch-làm-việc-của-quận" transform="translate(-1408.000000, -266.000000)" fill="#52555C">
            <g id="Group-7" transform="translate(1408.250000, 264.000000)">
                <path d="M29.7070312,30.359375 L21.9726562,22.7421875 C22.9882875,21.6484325 23.7890587,20.38868 24.375,18.9628925 C24.9609412,17.5371012 25.2539062,16.0234437 25.2539062,14.421875 C25.2539062,12.703115 24.9218775,11.0918037 24.2578125,9.5878925 C23.5937475,8.0839775 22.6904362,6.77051375 21.5478525,5.64746 C20.4052687,4.52441 19.0673887,3.63574625 17.5341787,2.98144625 C16.0009687,2.32714625 14.3652412,2 12.626955,2 C10.888665,2 9.2529375,2.32714625 7.7197275,2.98144625 C6.1865175,3.63574625 4.8486375,4.52441 3.7060545,5.64746 C2.56347075,6.77051375 1.6601595,8.0839775 0.99609375,9.5878925 C0.332027925,11.0918037 0,12.703115 0,14.421875 C0,16.140635 0.332027925,17.7519462 0.99609375,19.2558575 C1.6601595,20.7597725 2.56347075,22.0732362 3.7060545,23.19629 C4.8486375,24.31934 6.1865175,25.2080037 7.7197275,25.8623037 C9.2529375,26.5166038 10.888665,26.84375 12.626955,26.84375 C14.1308662,26.84375 15.556635,26.59961 16.904295,26.11133 C18.2519587,25.6230462 19.4726512,24.9394588 20.5664062,24.060545 L28.33008,31.7070312 C28.5253912,31.9023447 28.75488,32 29.0185537,32 C29.2822275,32 29.5117162,31.9023447 29.7070312,31.7070312 C29.9023462,31.5312493 30,31.3115248 30,31.0478517 C30,30.7841784 29.9023462,30.5546885 29.7070312,30.359375 L29.7070312,30.359375 L29.7070312,30.359375 Z M12.626955,24.939455 C11.14257,24.939455 9.755865,24.6611338 8.466795,24.1044913 C7.17772875,23.5478488 6.04981125,22.7959025 5.08300875,21.8486338 C4.11620625,20.9013613 3.34961213,19.7880913 2.78320312,18.50879 C2.21679412,17.229485 1.93359375,15.8671963 1.93359375,14.421875 C1.93359375,12.9765538 2.21679412,11.614265 2.78320312,10.33496 C3.34961213,9.05565875 4.11620625,7.94238875 5.08300875,6.99511625 C6.04981125,6.0478475 7.17772875,5.29590125 8.466795,4.73925875 C9.755865,4.18261625 11.14257,3.904295 12.626955,3.904295 C14.0918025,3.904295 15.473625,4.18261625 16.77246,4.73925875 C18.071295,5.29590125 19.204095,6.0478475 20.1708975,6.99511625 C21.1377,7.94238875 21.8994112,9.05565875 22.4560537,10.33496 C23.0126963,11.614265 23.2910175,12.9765538 23.2910175,14.421875 C23.2910175,15.8671963 23.0126963,17.229485 22.4560537,18.50879 C21.8994112,19.7880913 21.1377,20.9013613 20.1708975,21.8486338 C19.204095,22.7959025 18.071295,23.5478488 16.77246,24.1044913 C15.473625,24.6611338 14.0918025,24.939455 12.626955,24.939455 L12.626955,24.939455 Z M17.8125,14.1875 C17.8125,14.4414087 17.7197287,14.6611325 17.5341787,14.8466787 C17.3486325,15.0322287 17.1289087,15.125 16.875,15.125 L7.5,15.125 C7.24609125,15.125 7.0263675,15.0322287 6.84082125,14.8466787 C6.65527125,14.6611325 6.5625,14.4414087 6.5625,14.1875 C6.5625,13.9335912 6.65527125,13.7138675 6.84082125,13.5283212 C7.0263675,13.3427712 7.24609125,13.25 7.5,13.25 L16.875,13.25 C17.1289087,13.25 17.3486325,13.3427712 17.5341787,13.5283212 C17.7197287,13.7138675 17.8125,13.9335912 17.8125,14.1875 L17.8125,14.1875 Z" id="Page-1"></path>
            </g>
        </g>
    </g>
</svg>