<?xml version="1.0" encoding="UTF-8" standalone="no"?>
<svg width="30px" height="30px" viewBox="0 0 30 30" version="1.1" xmlns="http://www.w3.org/2000/svg" xmlns:xlink="http://www.w3.org/1999/xlink">
    <!-- Generator: Sketch 46 (44423) - http://www.bohemiancoding.com/sketch -->
    <title>Page 1</title>
    <desc>Created with Sketch.</desc>
    <defs></defs>
    <g id="Page-1" stroke="none" stroke-width="1" fill="none" fill-rule="evenodd">
        <g id="02.-Lịch-làm-việc-của-quận" transform="translate(-1769.000000, -266.000000)" fill="#52555C">
            <path d="M1785.6875,276.6875 L1791.6875,270.6875 L1787,266 L1799,266 L1799,278 L1794.3125,273.3125 L1788.3125,279.3125 L1785.6875,276.6875 Z M1785.6875,285.3125 L1788.3125,282.6875 L1794.3125,288.6875 L1799,284 L1799,296 L1787,296 L1791.6875,291.3125 L1785.6875,285.3125 Z M1782.3125,285.3125 L1776.3125,291.3125 L1781,296 L1769,296 L1769,284 L1773.6875,288.6875 L1779.6875,282.6875 L1782.3125,285.3125 Z M1782.3125,276.6875 L1779.6875,279.3125 L1773.6875,273.3125 L1769,278 L1769,266 L1781,266 L1776.3125,270.6875 L1782.3125,276.6875 Z" id="Page-1"></path>
        </g>
    </g>
</svg>